<svg width="236" height="158" viewBox="0 0 236 158" fill="none" xmlns="http://www.w3.org/2000/svg">
<g clip-path="url(#clip0_256_876)">
<path d="M-154.882 -28.833C-21.4669 -43.4537 -5.01988 -181.436 102.878 -190.245C154.27 -194.441 205.189 -135.959 297.449 -269.163C389.709 -402.366 497.626 -291.932 556.968 -393.439C602.116 -470.665 560.503 -588.781 618.887 -679.102" stroke="#FF8702" stroke-width="50"/>
<path opacity="0.1" d="M-105.627 -271.795C-87.873 -313.035 19.1566 -658.15 46.8715 -605.258C171.825 -366.793 373.15 -578.362 649.389 -791.698C863.597 -957.128 950.034 -920.28 1187.02 -937.293" stroke="#FF8702" stroke-width="50"/>
<path opacity="0.1" d="M237.004 523.123C268.401 386.556 275.347 98.4815 51.9497 38.7214C-171.448 -21.0386 -322.617 40.5451 -370.277 78.807C-334.399 -43.4579 -299.155 -300.638 -445.203 -351.239C-591.251 -401.84 -737.739 -360.829 -792.727 -333.999" stroke="#F2B443" stroke-width="50" stroke-linejoin="round"/>
</g>
<defs>
<clipPath id="clip0_256_876">
<rect width="360" height="6132" fill="white" transform="translate(0 -506)"/>
</clipPath>
</defs>
</svg>
